# xmcd CD database file
#
# Track frame offsets:
#	150
#	12775
#	22483
#	32732
#	46844
#	56670
#	69111
#	81753
#	94929
#	107346
#	120093
#	131685
#	141894
#	152982
#	165991
#	176125
#
# Disc length: 2527 seconds
#
# Revision: 0
# Processed by: cddbd v1.5.2PL0 Copyright (c) Steve Scherf et al.
# Submitted via: CDex 1.70beta2
#
DISCID=c909dd10
DTITLE=THE LEADING FIGURES - Sound And Movement
DYEAR=1967
DGENRE=Jazz
TTITLE0=Sunshine Superman
TTITLE1=Working In The Coalmine
TTITLE2=I Can't Help Myself
TTITLE3=Sunny
TTITLE4=High Time
TTITLE5=I've Got You Under My Skin
TTITLE6=How Sweet It Is
TTITLE7=You Can't Hurry Love
TTITLE8=Black Is Black
TTITLE9=Stop! In The Name Of Love
TTITLE10=Semi-Detached Suburban Mr. James
TTITLE11=Holy Cow
TTITLE12=God Only Knows
TTITLE13=My Guy
TTITLE14=My Mind's Eye
TTITLE15=Reach Out I'll Be There
EXTD=YEAR: 1967
EXTT0=
EXTT1=
EXTT2=
EXTT3=
EXTT4=
EXTT5=
EXTT6=
EXTT7=
EXTT8=
EXTT9=
EXTT10=
EXTT11=
EXTT12=
EXTT13=
EXTT14=
EXTT15=
PLAYORDER=
